<svg width="192" height="40" viewBox="0 0 192 40" fill="none" xmlns="http://www.w3.org/2000/svg">
<path d="M35.144 39H27.416L26.84 25.992C26.68 22.888 26.6 20.12 26.6 17.688C26.6 15.832 26.648 14.072 26.744 12.408L21.608 35.496H14.168L8.69598 12.408C8.88798 15.192 8.98398 17.816 8.98398 20.28C8.98398 22.136 8.93598 24.072 8.83998 26.088L8.26398 39H0.583984L3.07998 5.73602H13.016L18.008 28.296L22.664 5.73602H32.648L35.144 39Z" fill="#141414"/>
<path d="M61.2144 39H54.6384L54.3024 35.784C52.4464 38.472 49.8704 39.816 46.5744 39.816C44.2384 39.816 42.4624 39.112 41.2464 37.704C40.0624 36.296 39.4704 34.328 39.4704 31.8V13.512H47.0544V30.84C47.0544 32.088 47.2464 32.968 47.6304 33.48C48.0464 33.96 48.6704 34.2 49.5024 34.2C51.1024 34.2 52.4784 33.208 53.6304 31.224V13.512H61.2144V39Z" fill="#141414"/>
<path d="M81.0031 12.792C81.9311 12.792 82.7791 12.904 83.5471 13.128L82.3471 20.472C81.3871 20.248 80.6191 20.136 80.0431 20.136C78.5391 20.136 77.3871 20.664 76.5871 21.72C75.8191 22.744 75.2111 24.296 74.7631 26.376V39H67.1791V13.512H73.8031L74.4271 18.456C75.0031 16.696 75.8671 15.32 77.0191 14.328C78.2031 13.304 79.5311 12.792 81.0031 12.792Z" fill="#141414"/>
<path d="M94.0287 13.512V39H86.4447V13.512H94.0287ZM90.1887 0.0720215C91.5007 0.0720215 92.5727 0.488022 93.4047 1.32002C94.2687 2.12002 94.7007 3.14402 94.7007 4.39202C94.7007 5.64002 94.2687 6.68002 93.4047 7.51202C92.5727 8.31202 91.5007 8.71202 90.1887 8.71202C88.8767 8.71202 87.8047 8.31202 86.9727 7.51202C86.1407 6.68002 85.7247 5.64002 85.7247 4.39202C85.7247 3.14402 86.1407 2.12002 86.9727 1.32002C87.8047 0.488022 88.8767 0.0720215 90.1887 0.0720215Z" fill="#141414"/>
<path d="M106.76 39.816C104.552 39.816 102.824 39.192 101.576 37.944C100.36 36.664 99.7516 34.856 99.7516 32.52V3.38402L107.336 2.56802V32.232C107.336 33.288 107.768 33.816 108.632 33.816C109.08 33.816 109.496 33.736 109.88 33.576L111.368 38.952C109.992 39.528 108.456 39.816 106.76 39.816Z" fill="#141414"/>
<path d="M125.047 12.696C128.951 12.696 132.007 13.896 134.215 16.296C136.423 18.664 137.527 21.992 137.527 26.28C137.527 29 137.015 31.384 135.991 33.432C134.999 35.448 133.559 37.016 131.671 38.136C129.815 39.256 127.607 39.816 125.047 39.816C121.175 39.816 118.119 38.632 115.879 36.264C113.671 33.864 112.567 30.52 112.567 26.232C112.567 23.512 113.063 21.144 114.055 19.128C115.079 17.08 116.519 15.496 118.375 14.376C120.263 13.256 122.487 12.696 125.047 12.696ZM125.047 18.264C123.511 18.264 122.359 18.92 121.591 20.232C120.823 21.512 120.439 23.512 120.439 26.232C120.439 29.016 120.807 31.048 121.543 32.328C122.311 33.608 123.479 34.248 125.047 34.248C126.583 34.248 127.735 33.608 128.503 32.328C129.271 31.016 129.655 29 129.655 26.28C129.655 23.496 129.271 21.464 128.503 20.184C127.767 18.904 126.615 18.264 125.047 18.264Z" fill="#141414"/>
<path d="M167.973 4.92002C172.261 4.92002 175.957 6.28002 179.061 9.00002L175.077 13.176C173.893 12.28 172.789 11.64 171.765 11.256C170.773 10.84 169.621 10.632 168.309 10.632C165.845 10.632 163.877 11.608 162.405 13.56C160.933 15.48 160.197 18.408 160.197 22.344C160.197 26.6 160.757 29.624 161.877 31.416C162.997 33.176 164.741 34.056 167.109 34.056C168.773 34.056 170.277 33.688 171.621 32.952V25.416H167.301L166.533 19.848H179.253V36.312C177.525 37.432 175.621 38.296 173.541 38.904C171.461 39.512 169.381 39.816 167.301 39.816C162.245 39.816 158.437 38.344 155.877 35.4C153.317 32.424 152.037 28.072 152.037 22.344C152.037 18.696 152.725 15.56 154.101 12.936C155.509 10.312 157.413 8.32802 159.813 6.98402C162.245 5.60802 164.965 4.92002 167.973 4.92002Z" fill="#141414"/>
<path d="M187.151 31.128C188.335 31.128 189.343 31.56 190.175 32.424C191.039 33.256 191.471 34.264 191.471 35.448C191.471 36.664 191.039 37.704 190.175 38.568C189.343 39.4 188.335 39.816 187.151 39.816C185.935 39.816 184.895 39.4 184.031 38.568C183.199 37.704 182.783 36.664 182.783 35.448C182.783 34.264 183.199 33.256 184.031 32.424C184.895 31.56 185.935 31.128 187.151 31.128Z" fill="#141414"/>
</svg>
